<mxfile host="app.diagrams.net" agent="Mozilla/5.0 (Windows NT 10.0; Win64; x64) AppleWebKit/537.36 (KHTML, like Gecko) Chrome/129.0.0.0 Safari/537.36" version="24.7.17">
  <diagram name="Page-1" id="ndV7AYw7BCn8foQC6WbI">
    <mxGraphModel dx="724" dy="384" grid="1" gridSize="10" guides="1" tooltips="1" connect="1" arrows="1" fold="1" page="1" pageScale="1" pageWidth="850" pageHeight="1100" math="0" shadow="0">
      <root>
        <mxCell id="0" />
        <mxCell id="1" parent="0" />
        <mxCell id="TUYA6MpYjVsNvOkZe8Ju-3" style="edgeStyle=orthogonalEdgeStyle;rounded=0;orthogonalLoop=1;jettySize=auto;html=1;exitX=0.5;exitY=1;exitDx=0;exitDy=0;entryX=0.5;entryY=1;entryDx=0;entryDy=0;" edge="1" parent="1" source="TUYA6MpYjVsNvOkZe8Ju-1" target="TUYA6MpYjVsNvOkZe8Ju-2">
          <mxGeometry relative="1" as="geometry" />
        </mxCell>
        <mxCell id="TUYA6MpYjVsNvOkZe8Ju-1" value="Start" style="ellipse;whiteSpace=wrap;html=1;" vertex="1" parent="1">
          <mxGeometry x="365" y="20" width="105" height="40" as="geometry" />
        </mxCell>
        <mxCell id="TUYA6MpYjVsNvOkZe8Ju-2" value="" style="shape=trapezoid;perimeter=trapezoidPerimeter;whiteSpace=wrap;html=1;fixedSize=1;rotation=-180;" vertex="1" parent="1">
          <mxGeometry x="369" y="80" width="112" height="30" as="geometry" />
        </mxCell>
        <mxCell id="TUYA6MpYjVsNvOkZe8Ju-7" style="edgeStyle=orthogonalEdgeStyle;rounded=0;orthogonalLoop=1;jettySize=auto;html=1;exitX=0.5;exitY=1;exitDx=0;exitDy=0;entryX=0.5;entryY=0;entryDx=0;entryDy=0;" edge="1" parent="1" source="TUYA6MpYjVsNvOkZe8Ju-5" target="TUYA6MpYjVsNvOkZe8Ju-6">
          <mxGeometry relative="1" as="geometry" />
        </mxCell>
        <mxCell id="TUYA6MpYjVsNvOkZe8Ju-5" value="a, b" style="text;html=1;align=center;verticalAlign=middle;whiteSpace=wrap;rounded=0;" vertex="1" parent="1">
          <mxGeometry x="395" y="80" width="60" height="30" as="geometry" />
        </mxCell>
        <mxCell id="TUYA6MpYjVsNvOkZe8Ju-9" style="edgeStyle=orthogonalEdgeStyle;rounded=0;orthogonalLoop=1;jettySize=auto;html=1;exitX=0.5;exitY=1;exitDx=0;exitDy=0;entryX=0.5;entryY=0;entryDx=0;entryDy=0;" edge="1" parent="1" source="TUYA6MpYjVsNvOkZe8Ju-6" target="TUYA6MpYjVsNvOkZe8Ju-8">
          <mxGeometry relative="1" as="geometry" />
        </mxCell>
        <mxCell id="TUYA6MpYjVsNvOkZe8Ju-6" value="i = a" style="rounded=0;whiteSpace=wrap;html=1;" vertex="1" parent="1">
          <mxGeometry x="361" y="130" width="120" height="30" as="geometry" />
        </mxCell>
        <mxCell id="TUYA6MpYjVsNvOkZe8Ju-10" style="edgeStyle=orthogonalEdgeStyle;rounded=0;orthogonalLoop=1;jettySize=auto;html=1;exitX=0.5;exitY=1;exitDx=0;exitDy=0;" edge="1" parent="1" source="TUYA6MpYjVsNvOkZe8Ju-8">
          <mxGeometry relative="1" as="geometry">
            <mxPoint x="425" y="230" as="targetPoint" />
          </mxGeometry>
        </mxCell>
        <mxCell id="TUYA6MpYjVsNvOkZe8Ju-18" style="edgeStyle=orthogonalEdgeStyle;rounded=0;orthogonalLoop=1;jettySize=auto;html=1;exitX=1;exitY=0.5;exitDx=0;exitDy=0;entryX=0.5;entryY=0;entryDx=0;entryDy=0;" edge="1" parent="1" source="TUYA6MpYjVsNvOkZe8Ju-8" target="TUYA6MpYjVsNvOkZe8Ju-17">
          <mxGeometry relative="1" as="geometry" />
        </mxCell>
        <mxCell id="TUYA6MpYjVsNvOkZe8Ju-8" value="i &amp;lt;= b" style="shape=hexagon;perimeter=hexagonPerimeter2;whiteSpace=wrap;html=1;fixedSize=1;" vertex="1" parent="1">
          <mxGeometry x="365" y="180" width="120" height="30" as="geometry" />
        </mxCell>
        <mxCell id="TUYA6MpYjVsNvOkZe8Ju-11" value="i" style="shape=trapezoid;perimeter=trapezoidPerimeter;whiteSpace=wrap;html=1;fixedSize=1;" vertex="1" parent="1">
          <mxGeometry x="364" y="230" width="120" height="30" as="geometry" />
        </mxCell>
        <mxCell id="TUYA6MpYjVsNvOkZe8Ju-14" style="edgeStyle=orthogonalEdgeStyle;rounded=0;orthogonalLoop=1;jettySize=auto;html=1;exitX=0.5;exitY=1;exitDx=0;exitDy=0;" edge="1" parent="1" source="TUYA6MpYjVsNvOkZe8Ju-12">
          <mxGeometry relative="1" as="geometry">
            <mxPoint x="420" y="170" as="targetPoint" />
            <Array as="points">
              <mxPoint x="429" y="330" />
              <mxPoint x="349" y="330" />
              <mxPoint x="349" y="170" />
            </Array>
          </mxGeometry>
        </mxCell>
        <mxCell id="TUYA6MpYjVsNvOkZe8Ju-12" value="i = i + 1" style="rounded=0;whiteSpace=wrap;html=1;" vertex="1" parent="1">
          <mxGeometry x="369" y="280" width="120" height="30" as="geometry" />
        </mxCell>
        <mxCell id="TUYA6MpYjVsNvOkZe8Ju-13" style="edgeStyle=orthogonalEdgeStyle;rounded=0;orthogonalLoop=1;jettySize=auto;html=1;exitX=0.5;exitY=1;exitDx=0;exitDy=0;entryX=0.455;entryY=0.129;entryDx=0;entryDy=0;entryPerimeter=0;" edge="1" parent="1" source="TUYA6MpYjVsNvOkZe8Ju-11" target="TUYA6MpYjVsNvOkZe8Ju-12">
          <mxGeometry relative="1" as="geometry" />
        </mxCell>
        <mxCell id="TUYA6MpYjVsNvOkZe8Ju-15" value="DA" style="text;html=1;align=center;verticalAlign=middle;whiteSpace=wrap;rounded=0;" vertex="1" parent="1">
          <mxGeometry x="416" y="206" width="60" height="30" as="geometry" />
        </mxCell>
        <mxCell id="TUYA6MpYjVsNvOkZe8Ju-17" value="Kraj" style="ellipse;whiteSpace=wrap;html=1;" vertex="1" parent="1">
          <mxGeometry x="510" y="215" width="80" height="30" as="geometry" />
        </mxCell>
        <mxCell id="TUYA6MpYjVsNvOkZe8Ju-19" value="NE" style="text;html=1;align=center;verticalAlign=middle;whiteSpace=wrap;rounded=0;" vertex="1" parent="1">
          <mxGeometry x="512" y="172" width="60" height="30" as="geometry" />
        </mxCell>
      </root>
    </mxGraphModel>
  </diagram>
</mxfile>
